<svg width="910" height="127" viewBox="0 0 910 127" fill="none" xmlns="http://www.w3.org/2000/svg">
<path d="M26.12 71.4H49C57.32 71.4 64.7333 70.28 71.24 68.04C77.8533 65.6933 83.08 62.3333 86.92 57.96C90.76 53.48 92.68 48.0933 92.68 41.8C92.68 35.4 90.76 30.0667 86.92 25.8C83.08 21.5333 77.8533 18.3333 71.24 16.2C64.7333 14.0667 57.32 13 49 13H0.2V125H52.2C62.12 125 70.5467 123.987 77.48 121.96C84.52 119.933 89.8533 116.68 93.48 112.2C97.2133 107.72 99.08 101.747 99.08 94.28C99.08 88.3067 97.64 83.24 94.76 79.08C91.9867 74.8133 88.3067 71.3467 83.72 68.68C79.1333 66.0133 74.0667 64.0933 68.52 62.92C63.08 61.64 57.64 61 52.2 61H26.12V80.2H47.4C49.4267 80.2 51.2933 80.3067 53 80.52C54.8133 80.7333 56.4133 81.16 57.8 81.8C59.1867 82.3333 60.2533 83.1867 61 84.36C61.8533 85.4267 62.28 86.8667 62.28 88.68C62.28 91.6667 61.5867 93.8533 60.2 95.24C58.8133 96.6267 57 97.5333 54.76 97.96C52.52 98.3867 50.0667 98.6 47.4 98.6H35.4V39.4H44.2C48.2533 39.4 51.1867 40.0933 53 41.48C54.92 42.76 55.88 44.84 55.88 47.72C55.88 49.64 55.4533 51.2933 54.6 52.68C53.7467 54.0667 52.4667 55.1333 50.76 55.88C49.0533 56.6267 46.8667 57 44.2 57H26.12V71.4ZM108.606 88.2C108.606 96.0933 110.526 102.92 114.366 108.68C118.206 114.44 123.486 118.867 130.206 121.96C136.926 125.053 144.553 126.6 153.086 126.6C161.62 126.6 169.246 125.053 175.966 121.96C182.686 118.867 187.966 114.44 191.806 108.68C195.646 102.92 197.566 96.0933 197.566 88.2C197.566 80.2 195.646 73.32 191.806 67.56C187.966 61.8 182.686 57.3733 175.966 54.28C169.246 51.1867 161.62 49.64 153.086 49.64C144.553 49.64 136.926 51.1867 130.206 54.28C123.486 57.3733 118.206 61.8 114.366 67.56C110.526 73.32 108.606 80.2 108.606 88.2ZM140.766 88.2C140.766 85.2133 141.353 82.7067 142.526 80.68C143.7 78.6533 145.193 77.1067 147.006 76.04C148.926 74.9733 150.953 74.44 153.086 74.44C155.22 74.44 157.193 74.9733 159.006 76.04C160.926 77.1067 162.473 78.6533 163.646 80.68C164.82 82.7067 165.406 85.2133 165.406 88.2C165.406 91.1867 164.82 93.6933 163.646 95.72C162.473 97.7467 160.926 99.2933 159.006 100.36C157.193 101.32 155.22 101.8 153.086 101.8C150.953 101.8 148.926 101.32 147.006 100.36C145.193 99.2933 143.7 97.7467 142.526 95.72C141.353 93.6933 140.766 91.1867 140.766 88.2ZM235.36 101.8C235.36 100.52 235.627 99.5067 236.16 98.76C236.693 97.9067 237.547 97.2667 238.72 96.84C240 96.4133 241.653 96.2 243.68 96.2C246.88 96.2 249.973 96.68 252.96 97.64C256.053 98.6 258.507 99.88 260.32 101.48V88.84C258.72 87.1333 256.48 85.7467 253.6 84.68C250.827 83.5067 247.627 82.6 244 81.96C240.48 81.32 236.8 81 232.96 81C223.573 81 216.373 83.0267 211.36 87.08C206.453 91.0267 204 96.52 204 103.56C204 108.573 205.227 112.84 207.68 116.36C210.133 119.773 213.387 122.333 217.44 124.04C221.493 125.747 225.92 126.6 230.72 126.6C235.84 126.6 240.427 125.747 244.48 124.04C248.533 122.227 251.733 119.667 254.08 116.36C256.427 112.947 257.6 108.893 257.6 104.2L255.04 94.6C255.04 97.8 254.4 100.413 253.12 102.44C251.947 104.36 250.4 105.8 248.48 106.76C246.667 107.613 244.747 108.04 242.72 108.04C241.44 108.04 240.213 107.827 239.04 107.4C237.973 106.867 237.067 106.173 236.32 105.32C235.68 104.36 235.36 103.187 235.36 101.8ZM219.2 77.32C220.16 76.7867 221.92 76.0933 224.48 75.24C227.04 74.28 229.973 73.48 233.28 72.84C236.587 72.0933 239.733 71.72 242.72 71.72C244.96 71.72 246.88 71.9867 248.48 72.52C250.08 72.9467 251.36 73.64 252.32 74.6C253.28 75.4533 253.973 76.4667 254.4 77.64C254.827 78.8133 255.04 80.0933 255.04 81.48V125H284.64V73.8C284.64 68.4667 282.987 63.9867 279.68 60.36C276.373 56.6267 271.893 53.8 266.24 51.88C260.587 49.96 254.293 49 247.36 49C240.32 49 233.547 49.8533 227.04 51.56C220.64 53.2667 214.88 55.1333 209.76 57.16L219.2 77.32ZM329.475 51.4H299.075V125H329.475V51.4ZM350.115 83.08L362.755 56.2C361.795 54.3867 360.035 52.84 357.475 51.56C355.022 50.1733 352.462 49.48 349.795 49.48C345.315 49.48 341.048 50.8667 336.995 53.64C333.048 56.3067 329.848 59.9333 327.395 64.52C324.942 69.1067 323.715 74.3333 323.715 80.2L329.475 93.8C329.475 90.28 330.008 87.4 331.075 85.16C332.248 82.92 333.742 81.2667 335.555 80.2C337.368 79.1333 339.182 78.6 340.995 78.6C343.128 78.6 344.942 79.0267 346.435 79.88C347.928 80.7333 349.155 81.8 350.115 83.08ZM425.975 0.199995V125H457.175V0.199995H425.975ZM366.775 88.2C366.775 96.6267 368.428 103.72 371.735 109.48C375.148 115.133 379.468 119.4 384.695 122.28C389.922 125.16 395.308 126.6 400.855 126.6C407.042 126.6 412.535 125.053 417.335 121.96C422.242 118.867 426.135 114.44 429.015 108.68C431.895 102.92 433.335 96.0933 433.335 88.2C433.335 80.2 431.895 73.3733 429.015 67.72C426.135 61.96 422.242 57.5333 417.335 54.44C412.535 51.3467 407.042 49.8 400.855 49.8C395.308 49.8 389.922 51.24 384.695 54.12C379.468 57 375.148 61.2667 371.735 66.92C368.428 72.5733 366.775 79.6667 366.775 88.2ZM399.735 88.2C399.735 85.4267 400.322 82.9733 401.495 80.84C402.668 78.7067 404.268 77 406.295 75.72C408.322 74.44 410.508 73.8 412.855 73.8C414.988 73.8 417.068 74.3867 419.095 75.56C421.122 76.7333 422.775 78.3867 424.055 80.52C425.335 82.6533 425.975 85.2133 425.975 88.2C425.975 91.1867 425.335 93.7467 424.055 95.88C422.775 98.0133 421.122 99.6667 419.095 100.84C417.068 102.013 414.988 102.6 412.855 102.6C410.508 102.6 408.322 101.96 406.295 100.68C404.268 99.4 402.668 97.6933 401.495 95.56C400.322 93.32 399.735 90.8667 399.735 88.2ZM553.869 77L581.069 125H621.869L589.869 77H553.869ZM521.069 13V125H556.269V13H521.069ZM543.789 42.6H565.069C568.055 42.6 570.509 43.0267 572.429 43.88C574.349 44.6267 575.789 45.8 576.749 47.4C577.815 48.8933 578.349 50.76 578.349 53C578.349 55.1333 577.815 57 576.749 58.6C575.789 60.2 574.349 61.4267 572.429 62.28C570.509 63.0267 568.055 63.4 565.069 63.4H543.789V89.8H568.269C579.255 89.8 588.162 88.1467 594.989 84.84C601.922 81.5333 606.989 77 610.189 71.24C613.495 65.3733 615.149 58.76 615.149 51.4C615.149 43.9333 613.495 37.32 610.189 31.56C606.989 25.8 601.922 21.2667 594.989 17.96C588.162 14.6533 579.255 13 568.269 13H543.789V42.6ZM654.86 101.8C654.86 100.52 655.127 99.5067 655.66 98.76C656.193 97.9067 657.047 97.2667 658.22 96.84C659.5 96.4133 661.153 96.2 663.18 96.2C666.38 96.2 669.473 96.68 672.46 97.64C675.553 98.6 678.007 99.88 679.82 101.48V88.84C678.22 87.1333 675.98 85.7467 673.1 84.68C670.327 83.5067 667.127 82.6 663.5 81.96C659.98 81.32 656.3 81 652.46 81C643.073 81 635.873 83.0267 630.86 87.08C625.953 91.0267 623.5 96.52 623.5 103.56C623.5 108.573 624.727 112.84 627.18 116.36C629.633 119.773 632.887 122.333 636.94 124.04C640.993 125.747 645.42 126.6 650.22 126.6C655.34 126.6 659.927 125.747 663.98 124.04C668.033 122.227 671.233 119.667 673.58 116.36C675.927 112.947 677.1 108.893 677.1 104.2L674.54 94.6C674.54 97.8 673.9 100.413 672.62 102.44C671.447 104.36 669.9 105.8 667.98 106.76C666.167 107.613 664.247 108.04 662.22 108.04C660.94 108.04 659.713 107.827 658.54 107.4C657.473 106.867 656.567 106.173 655.82 105.32C655.18 104.36 654.86 103.187 654.86 101.8ZM638.7 77.32C639.66 76.7867 641.42 76.0933 643.98 75.24C646.54 74.28 649.473 73.48 652.78 72.84C656.087 72.0933 659.233 71.72 662.22 71.72C664.46 71.72 666.38 71.9867 667.98 72.52C669.58 72.9467 670.86 73.64 671.82 74.6C672.78 75.4533 673.473 76.4667 673.9 77.64C674.327 78.8133 674.54 80.0933 674.54 81.48V125H704.14V73.8C704.14 68.4667 702.487 63.9867 699.18 60.36C695.873 56.6267 691.393 53.8 685.74 51.88C680.087 49.96 673.793 49 666.86 49C659.82 49 653.047 49.8533 646.54 51.56C640.14 53.2667 634.38 55.1333 629.26 57.16L638.7 77.32ZM766.575 80.2V125H799.375V77C799.375 68.2533 797.402 61.5333 793.455 56.84C789.508 52.04 782.522 49.64 772.495 49.64C766.735 49.64 761.988 50.8133 758.255 53.16C754.628 55.4 751.802 58.3867 749.775 62.12V51.4H718.575V125H749.775V80.2C749.775 77.7467 750.148 75.7733 750.895 74.28C751.642 72.68 752.708 71.5067 754.095 70.76C755.482 70.0133 757.082 69.64 758.895 69.64C762.095 69.64 764.175 70.6 765.135 72.52C766.095 74.3333 766.575 76.8933 766.575 80.2ZM813.85 0.199995V125H843.45V0.199995H813.85ZM870.01 51.4L838.81 81.8L873.85 125H909.85L875.45 81.8L906.65 51.4H870.01Z" fill="black"/>
</svg>
